# xmcd
#
# Track frame offsets: 
#        150
#        12936
#        25977
#        37193
#        49238
#        63900
#        73229
#        87464
#        100436
#        113707
#        129523
#        140979
#        153758
#        165948
#        185805
#        195997
#        208033
#        219762
#        236095
#        249019
#
# Disc length: 3502 seconds
#
# Revision: 0
# Processed by: cddbd v1.5.2PL0 Copyright (c) Steve Scherf et al.
# Submitted via: ExactAudioCopy v0.99pb4
#
DISCID=1c0dac14
DTITLE=Various Artist - Legendary Labels Of Louisiana The Best Of Internation
DTITLE=al City [CD2]
DYEAR=1970
DGENRE=Soul
TTITLE0=Robert Parker - You See Me
TTITLE1=Robert Parker - Rockin' Pneumonia
TTITLE2=Robert Parker - The Hiccup
TTITLE3=Robert Parker - Funky Bump
TTITLE4=Robert Parker - Wash Mama Wash
TTITLE5=Robert Parker - You Shaking Things Up
TTITLE6=Bobby Marchan - Any Way You Want It
TTITLE7=Bobby Marchan - What Can I Do
TTITLE8=Tommy Ridgley - I'm Not The Same Person
TTITLE9=Tommy Ridgley - Don't Take My Sunshine Away
TTITLE10=Tommy Ridgley - When I Meet My Girl
TTITLE11=Tommy Ridgley - Something On Your Mind
TTITLE12=Tommy Ridgley - I'm Asking Forgiveness
TTITLE13=Tommy Ridgley - If I Ever Needed Someone
TTITLE14=Wayman Dixon - My Broken Heart
TTITLE15=Wayman Dixon - St. James Infirmary
TTITLE16=Lee Tillman - Down The Road
TTITLE17=Lee Tillman - Better World
TTITLE18=George Perkins - Starting All Over
TTITLE19=Robert Parker - The Hiccup(Instrumental Remix)
EXTD=
EXTT0=
EXTT1=
EXTT2=
EXTT3=
EXTT4=
EXTT5=
EXTT6=
EXTT7=
EXTT8=
EXTT9=
EXTT10=
EXTT11=
EXTT12=
EXTT13=
EXTT14=
EXTT15=
EXTT16=
EXTT17=
EXTT18=
EXTT19=
PLAYORDER=
